<?xml version="1.0" encoding="utf-8"?>
<!-- Generator: Adobe Illustrator 24.2.3, SVG Export Plug-In . SVG Version: 6.00 Build 0)  -->
<svg version="1.1" id="Capa_1" xmlns="http://www.w3.org/2000/svg" xmlns:xlink="http://www.w3.org/1999/xlink" x="0px" y="0px"
	 viewBox="0 0 1920 1080" style="enable-background:new 0 0 1920 1080;" xml:space="preserve">
<style type="text/css">
	.st0{fill:#FFFFFF;}
</style>
<g>
	<path class="st0" d="M1101.77,520.93h-18v2.26l4.72,1.11v33.23c-0.61,0.82-1.62,1.67-3.31,1.67c-3.15,0-4.95-2.67-5.83-4.29
		l-4.51-8.05c-1.84-3.42-3.93-5.04-8.22-5.53v-0.55c6.02-0.15,11.37-4.43,11.37-10.24c0-6.9-6.28-9.6-13.54-9.6h-16.34v2.26
		l5.32,1.12v33.66h-0.02l-6.14,1.18l-15.29-41.72c-1.84,2.19-3.79,3.83-5.51,4.71l0.58,1.68l-13.96,34.19l-4.22,1.13v2.26h12.7
		v-2.26l-4.16-1.08l4.72-12.45h12.95l4.55,12.36l-4.88,1.17v2.26h30.98v-2.26l-5.21-1.1v-15.67c3.52,0.23,5.2,1.83,6.9,5.07
		l6.14,10.96c2.05,3.56,5.14,5.4,8.89,5.4c2.89,0,5.21-1.74,5.83-2.4h13.87c11.8,0,21.37-9.06,21.37-20.23
		C1123.51,529.36,1114.38,520.93,1101.77,520.93L1101.77,520.93z M1023.2,542.45l5.48-14.37l5.27,14.37H1023.2L1023.2,542.45z
		 M1063.28,539.41c-0.63,0-1.95-0.01-2.76-0.02v-15.08h3.46c4.34,0,7.24,3.24,7.08,7.23
		C1070.91,535.53,1068.05,539.41,1063.28,539.41L1063.28,539.41z M1101.36,558.06h-5.77v-33.74h5.93c9.19,0,14.83,6.35,14.83,16.87
		C1116.34,551.55,1110.47,558.06,1101.36,558.06L1101.36,558.06z"/>
	<path class="st0" d="M806.4,558.05l-14.95-40.63c-1.84,2.19-3.79,3.83-5.51,4.71l0.58,1.68l-13.96,34.19l-2.98,1.13l-0.89,2.26
		h12.36v-2.26l-4.16-1.08l4.72-12.45h12.95l4.55,12.36l-4.88,1.17v2.26h16.61v-2.26L806.4,558.05L806.4,558.05z M782.66,542.45
		l5.47-14.37l5.27,14.37H782.66L782.66,542.45z"/>
	<polygon class="st0" points="770.76,551.13 769.25,550.29 760.5,558.26 753.03,558.26 753.03,524.33 757.52,523.19 757.52,520.93 
		741.41,520.93 741.41,523.19 745.94,524.34 745.94,557.99 741.41,559.14 741.41,561.4 766.74,561.4 770.76,551.13 	"/>
	<polygon class="st0" points="841.08,520.93 841.08,523.19 845.94,524.33 835.36,551.41 824.23,524.28 829.48,523.19 829.48,520.93 
		811.5,520.93 811.5,523.19 816.64,524.31 832.62,562.81 834.34,562.81 850.26,524.37 850.4,524.37 855.38,523.19 855.38,520.93 
		841.08,520.93 	"/>
	<path class="st0" d="M1000.64,520.93v2.26l4.84,1.14c0,0,0.37,20.05,0.18,25.13c-0.21,5.93-4.82,9.89-10.9,9.89
		c-6.24,0-10.72-3.7-10.9-10.39v-24.7l4.7-1.06v-2.26h-16.26v2.26l4.61,1.1v24.87c0.31,8.55,7.2,14.16,16.08,14.16
		c8.88,0,15.78-5.19,16.08-14.16l0.31-24.83l4.75-1.14v-2.26H1000.64L1000.64,520.93z"/>
	<path class="st0" d="M1176.46,557.97l-14.89-40.54c-1.84,2.19-3.79,3.83-5.51,4.71l0.58,1.68l-13.99,34.36l-2.38,0.97l-3.22-1.02
		v-33.81l4.96-1.13v-2.26h-16.94v2.26l4.89,1.16v33.69l-4.7,1.1v2.26h25.9v-2.26l-4.17-1.09l4.73-12.45h12.95l4.55,12.36l-4.88,1.17
		v2.26h16.61v-2.26L1176.46,557.97L1176.46,557.97z M1152.78,542.45l5.47-14.37l5.27,14.37H1152.78L1152.78,542.45z"/>
	<path class="st0" d="M913.7,520.93v2.26l4.94,1.16l0.3,26.47l-25.36-29.89h-10.83v2.26l4.9,1.08l0.41,0.22l-0.36,33.48h-0.01
		l-4.99,1.18l-15.3-41.72c-1.84,2.19-3.79,3.83-5.51,4.71l0.58,1.68l-13.96,34.19l-4.22,1.13v2.26H857v-2.26l-4.16-1.08l4.72-12.45
		h12.95l4.55,12.36l-4.88,1.17v2.26h26.61v-2.26l-5.21-1.14l-0.32-29.28l28.99,34.08h1.92l0.39-38.5l4.91-1.12v-2.26H913.7
		L913.7,520.93z M858.61,542.45l5.48-14.37l5.27,14.37H858.61L858.61,542.45z"/>
	<path class="st0" d="M956.3,540.71v2.26l4.57,1.15v13.04c-2.17,1.8-5.75,3.05-9.15,3.05c-9.2,0-15.08-7.75-15.08-18.48
		c0-10.42,5.78-19.31,15.21-19.31c6.13,0,11.56,4.29,13.55,11.02l1.31-0.77v-12.79l-1.16-0.65l-2.46,3.11
		c-2.59-1.4-7.01-2.85-11.2-2.85c-12.5,0-22.71,10.17-22.71,22.3c0,12.61,8.91,21.58,20.98,21.58c4.93,0,9.48-1.52,13.05-4.34
		l3.57,2.38h1.16v-17.37l3.82-1.45v-1.86H956.3L956.3,540.71z"/>
</g>
</svg>
